<svg version="1.2" xmlns="http://www.w3.org/2000/svg" viewBox="0 0 250 250" width="250" height="250">
	<title>dexscreener</title>
	<style>
		.s0 { fill: #fdfdfd } 
	</style>
	<g id="Background">
		<path id="Path 1" fill-rule="evenodd" class="s0" d="m126.3 1c31.2 0 43 5.2 55.1 13.2 9.7 6.5 18.5 8.9 24.1 6.4 7.7-3.3 7.6-2-1.3 11.1-5.5 8.3-20.4 22.7-33.1 32.1-19.9 14.8-26.5 16.9-48.7 15.7-19.2-1.1-30.6-5.2-45.5-16.7-10.9-8.4-24.7-22.1-30.7-30.5-9.3-13-9.6-14.6-1.9-11.5 5.5 2.3 15.4-0.2 25.6-6.5 12.9-7.9 25.7-13.3 56.4-13.3zm-82.8 49.1c2.6 0 6.6 4 9.1 9 2.4 4.9 3.3 12.4 2 16.6-1.3 4.2-1.2 12.3 0.3 18 1.5 5.6 9.9 13.7 18.7 17.9 8.8 4.2 15.9 9.4 15.7 11.5-0.1 2.1-7.7 8.2-33.5 23.1l18 10.3c12.4 7.1 21.5 18.4 29.4 36.5 6.4 14.4 13.3 33.1 19.2 57.1l-110.1-0.2 3.2-14.1c1.8-7.7 5.2-23.3 7.5-34.6 2.3-11.2 4.3-39.5 4.4-62.7 0.2-23.3 2.8-52.7 5.9-65.3 3.1-12.7 7.7-23.1 10.2-23.1zm166.9 7.7c4.3 6.3 7 24.1 6.9 46.1 0 19.7 3.2 56.6 7.1 82 3.9 25.3 8.5 50.1 10.2 55 2.8 8.2-1.8 9-109.6 9l7-21.8c3.8-11.9 11.3-30.9 16.6-42 5.7-11.8 17.2-24.5 45.6-40.6l-16.8-8c-9.2-4.4-16.6-10.3-16.5-13.1 0.2-2.8 7.8-9.8 16.8-15.6 13.4-8.4 16.5-13.7 16.5-28.1 0-9.8 2-21.2 4.6-25.5 3.9-6.5 5.6-6.2 11.6 2.6zm-137.9 23.2c2.1 0.1 9.6 3.4 16.6 7.3 11.1 6.2 11.6 7.6 3.9 10.1-5 1.6-12.5 0.1-16.9-3.5-4.3-3.5-7.8-8.1-7.7-10.2 0.1-2.1 2-3.8 4.1-3.7zm104.2-0.2c1.8 0 2.8 2.9 2.2 6.4-0.7 3.6-4.9 8.8-9.4 11.6-4.4 2.8-10 3.2-12.2 0.8-2.3-2.3 0.4-7.5 6-11.5 5.6-4 11.6-7.3 13.4-7.3zm-52.2 10.4c1.7 0.1 7.2 4.1 12.2 9 5 4.8 9.1 15.2 9 22.9-0.1 8.1 3.1 15.2 7.5 16.7 6.2 2 5.2 5.4-5.1 17.9-7.1 8.4-14 21.1-15.4 28.2-1.4 7-4.9 12.8-7.7 12.8-2.8 0-6.3-5.8-7.7-12.8-1.4-7.1-8.3-19.8-15.4-28.2-10.3-12.5-11.3-15.9-5.1-17.9 4.7-1.6 7.3-8 6.8-16.3-0.5-7.5 3.3-17.9 8.4-23 5.2-5.2 10.8-9.3 12.5-9.3z"/>
	</g>
</svg>