<svg version="1.2" xmlns="http://www.w3.org/2000/svg" viewBox="0 0 250 250" width="250" height="250">
	<title>gecko</title>
	<style>
		.s0 { fill: #d4d4d4 } 
		.s1 { fill: #ffffff } 
		.s2 { fill: #131313 } 
	</style>
	<path fill-rule="evenodd" class="s0" d="m183.5 43.6c5.2 9.3 12.8 16.9 22.1 22.1l14.9 8.4c17.9 10 29.1 28.8 29.5 49.3 0.4 21.3-11 41-29.6 51.4l-13.2 7.3c-9.3 5.2-16.9 12.8-22.1 22l-9 15.9c-10.2 17.8-29 29-49.6 29.2-20.5 0.2-2.2 0-2.2 0-21.1 0.3-40.6-11-50.9-29.4l-7.8-14c-5.2-9.3-13.4-17.1-22.7-22.3l-13.4-7.6c-18.4-10.4-29.7-29.9-29.5-51v-2c0.3-20.6 11.5-39.6 29.5-49.7l14.6-8.1c9.3-5.2 16.9-12.8 22.1-22l8.2-14.5c10.4-18.5 30.1-29.7 51.3-29.4 20.5 0.4 39.4 11.6 49.4 29.5zm-60.2 22.4q-0.8-0.4-1.6-0.7-0.2 0-0.3 0c0.9 0.4 2.1 0.8 3.5 1.4q-1-0.4-1.6-0.7zm-26.6-1.5c-70.2 19.5-30.7 68.5-56.5 116.2 39.8 15.8 23.7 68.4 93.4 67.2 0 0-12.2-74.6 31.9-97.4 35.8-18.4 61.7-52.6 8.9-67.1-6.9-2.1-39.4-12.6-49.5-16.7 8.9 3.2 27.1 9.5 35.6 12.1-10.1-16.7-25.2-16.2-38.8-13.5-8.1-3.2-16.9-2.7-25-0.8z"/>
	<path fill-rule="evenodd" class="s1" d="m108.5 114.5c-10.9 0-19.7-8.8-19.7-19.7 0-11 8.8-19.8 19.7-19.8 10.8 0 19.6 8.8 19.6 19.8 0 10.9-8.8 19.7-19.6 19.7z"/>
	<path fill-rule="evenodd" class="s2" d="m116.8 110.7c-6.4 0-11.6-7.2-11.6-16.1 0-8.9 5.2-16.1 11.6-16.1 6.3 0 11.5 7.2 11.5 16.1 0 8.9-5.2 16.1-11.5 16.1z"/>
	<path class="s1" d="m116.8 94.6l-13.9-9.2v18.4z"/>
</svg>