<svg version="1.2" xmlns="http://www.w3.org/2000/svg" viewBox="0 0 250 250" width="250" height="250">
	<title>tradingview</title>
	<style>
		.s0 { fill: none;stroke: #ffffff;stroke-miterlimit:100;stroke-width: 20 } 
		.s1 { opacity: .99;fill: #fcfcfc } 
	</style>
	<g id="Background">
		<path id="Shape 2" fill-rule="evenodd" class="s0" d="m37 12h175c13.8 0 25 11.2 25 25v175c0 13.8-11.2 25-25 25h-175c-13.8 0-25-11.2-25-25v-175c0-13.8 11.2-25 25-25z"/>
		<path id="Path 0" fill-rule="evenodd" class="s1" d="m40 5.2l169.9-0.2 7.7 3.8c4.8 2.3 9.7 5.7 13 8.9 3 3 7.2 8.7 14.3 21.4l0.1 171.4-2.5 5c-1.4 2.8-4.4 7.6-6.6 10.8-2.4 3.4-6.2 7.2-9.3 9.2-2.8 1.9-7.5 4.8-15.7 9.5h-171.3l-6.5-3.4c-3.6-1.8-8.6-4.8-11.1-6.7-2.5-1.8-6.2-5.8-8.2-8.8-2.1-3.1-4.9-7.8-8.8-15.6l0.5-171.4 3.6-7.4c2.3-4.8 5.5-9.5 9.1-13.1 4.1-4.2 7.7-6.7 13.7-9.6zm88.3 78c-1.5 1.1-3.8 4.2-5 6.9-1.2 2.6-2.2 6.1-2.2 7.7 0 1.5 0.4 4.5 1 6.4 0.5 2 2.6 5.5 4.6 7.7 2 2.3 5 4.7 6.5 5.4 1.7 0.8 5.2 1.1 9.2 0.9 4.6-0.2 7.1-0.8 9.1-2.3 1.5-1.1 4-3.7 5.6-5.8 1.7-2 3.3-5.5 3.6-7.8 0.4-2.2 0.3-5.9-0.3-8.1-0.5-2.3-2.4-5.8-4.1-7.9-1.7-2.1-4.8-4.5-6.9-5.5-2.1-0.9-6-1.7-8.6-1.7-2.7 0-5.9 0.5-7.2 1-1.4 0.6-3.7 2-5.3 3.1zm-95.5 37.1h38.4v58.6c28.9-0.4 37.6-0.9 38-1.3 0.5-0.5 1.1-4.8 1.5-9.6 0.3-4.9 0.6-26.6 0.7-48.4l0.1-39.6h-78.7zm147.4-37.2c-0.7 1.2-7.3 16.4-14.5 33.8-7.3 17.5-15.5 37.7-18.3 44.9-2.9 7.3-5.2 13.8-5.2 14.4 0 0.7 1.4 1.5 3.1 1.9 1.7 0.4 10.1 0.8 18.5 0.8h15.4c6.6-4.7 9.1-7.7 10.6-10.8 1.4-2.8 5.3-11.4 8.6-19 3.3-7.7 11-26 17.2-40.8 6.2-14.8 11.5-27.2 11.7-27.6 0.2-0.4-8.4-0.6-19.1-0.6-10.7 0.1-21.1 0.3-23 0.5-2.5 0.2-4.1 1-5 2.5z"/>
	</g>
</svg>