<svg version="1.2" xmlns="http://www.w3.org/2000/svg" viewBox="0 0 512 512" width="512" height="512">
	<title>logo</title>
	<defs>
		<linearGradient id="g1" x2="1" gradientUnits="userSpaceOnUse" gradientTransform="matrix(332.167,-332.167,332.148,332.148,175.131,421.979)">
			<stop offset="0" stop-color="#5856d6"/>
			<stop offset="1" stop-color="#0088cc"/>
		</linearGradient>
	</defs>
	<style>
		.s0 { fill: url(#g1) } 
		.s1 { fill: #ffffff } 
	</style>
	<path id="Path 0" fill-rule="evenodd" class="s0" d="m253 43c39.9-0.1 80.4 0.3 90 0.8 9.6 0.6 22.7 1.7 29 2.6 6.3 0.8 14.4 2.2 18 3 3.6 0.8 9.4 2.4 13 3.6 3.6 1.1 9.9 3.8 14 5.8 4.1 2.1 10.4 6 13.9 8.6 3.5 2.7 8.8 7.8 11.8 11.4 2.9 3.6 7.3 10.3 9.7 15 2.4 4.7 5.3 11.4 6.4 15 1.2 3.6 2.8 9.4 3.6 13 0.8 3.6 2.2 11.7 3 18 0.9 6.3 2 19.6 2.6 29.5 0.5 9.9 1 48.8 1 86.5 0 37.7-0.5 76.6-1 86.5-0.6 9.9-1.7 23.2-2.6 29.5-0.8 6.3-2.2 14.4-3 18-0.8 3.6-2.4 9.4-3.6 13-1.1 3.6-3.6 9.6-5.5 13.5-1.9 3.9-5.9 10.1-8.8 14-2.9 3.9-8.1 9.4-11.6 12.3-3.5 2.9-10.2 7.2-14.9 9.6-4.7 2.4-11.4 5.3-15 6.4-3.6 1.2-9.4 2.8-13 3.6-3.6 0.8-11.7 2.2-18 3-6.3 0.9-19.6 2-29.5 2.6-9.9 0.5-48.8 1-86.5 1-37.7 0-76.6-0.5-86.5-1-9.9-0.6-23.2-1.7-29.5-2.6-6.3-0.8-14.4-2.2-18-3-3.6-0.8-9.4-2.4-13-3.6-3.6-1.1-9.7-3.6-13.5-5.5-3.8-1.9-10.2-5.9-14-8.8-3.8-2.9-9.4-8.1-12.3-11.6-2.9-3.5-7.2-10.2-9.6-14.9-2.4-4.7-5.3-11.4-6.4-15-1.2-3.6-2.8-9.4-3.6-13-0.8-3.6-2.2-11.7-3-18-0.9-6.3-2-19.4-2.6-29-0.5-9.6-1-48.8-1-87 0-38.2 0.5-77.4 1-87 0.6-9.6 1.7-22.7 2.6-29 0.8-6.3 2.2-14.4 3-18 0.8-3.6 2.4-9.4 3.6-13 1.1-3.6 4-10.3 6.4-15 2.4-4.7 6.7-11.4 9.6-14.9 2.9-3.5 8.5-8.7 12.3-11.6 3.8-2.9 10.2-6.9 14-8.8 3.8-1.9 9.9-4.4 13.5-5.5 3.6-1.2 9.4-2.8 13-3.6 3.6-0.8 11.7-2.2 18-3.1 6.3-0.8 18-1.9 26-2.4 8-0.4 47.1-0.9 87-0.9z"/>
	<path id="Path 0 copy" fill-rule="evenodd" class="s1" d="m138.2 138.2c-1.8 1.8-3.8 5.1-4.4 7.3-0.7 2.9-0.7 5.1 0.2 8 1 3.2 6 8.8 26.3 29.2l25.2 25.2c-29.5 0.6-31.7 0.8-34.1 2.6-1.4 1.1-3.6 3.3-4.8 4.8-1.6 2.2-2.1 4.3-2.1 8.7 0 4.3 0.5 6.6 2 8.6 1.1 1.4 3.3 3.6 4.8 4.8 2.8 2.1 3.7 2.1 40.7 2.1 37 0 37.9 0 40.7-2.1 1.5-1.2 3.7-3.4 4.8-4.8 1.9-2.6 2-4.3 2-40.6 0-36.3-0.1-38-2-40.6-1.1-1.4-3.3-3.6-4.8-4.8-2.2-1.6-4.3-2.1-8.7-2.1-4.4 0-6.5 0.5-8.7 2.1-1.5 1.2-3.7 3.4-4.8 4.8-1.8 2.4-2 4.6-2.3 18.4l-0.3 15.7c-41.2-41.2-50.6-49.9-53.2-51-2-0.8-4.5-1.5-5.5-1.4-0.9 0-3 0.5-4.7 0.9-1.7 0.5-4.5 2.4-6.3 4.2z"/>
	<path id="Path 0 copy 2" fill-rule="evenodd" class="s1" d="m147.3 277.9c-1.2 1.7-2.6 4.6-2.9 6.3-0.3 1.8-0.3 5 0 7 0.3 2.1 1.7 5 2.9 6.5 1.3 1.6 4 3.6 6 4.5 3 1.5 6.4 1.8 17.8 1.8h14.2c-46 46.3-50.3 51.2-51.2 54.5-0.7 2.6-0.7 5.4-0.1 8 0.6 2.3 2.4 5.4 4.2 7.3 1.8 1.8 5 3.7 7 4.2 2.6 0.7 5.2 0.6 8-0.1 3.7-0.9 7.7-4.4 29.5-26.2l25.2-25.2c0.6 29.8 0.8 31.6 2.7 34.2 1.2 1.5 3.4 3.7 4.8 4.8 2 1.5 4.3 2 8.6 2 4.3 0 6.6-0.5 8.6-2 1.4-1.1 3.6-3.3 4.8-4.8 2.1-2.8 2.1-3.7 2.1-40.7 0-37 0-37.9-2.1-40.7-1.2-1.5-3.4-3.7-4.8-4.8-2.6-1.9-4.5-2-39.4-2.2-28.9-0.2-37.4 0-40.1 1.1-1.9 0.7-4.5 2.7-5.8 4.5z"/>
	<path id="Path 0 copy 3" fill-rule="evenodd" class="s1" d="m275.3 277.9c-1.2 1.7-2.5 4.6-2.9 6.3-0.3 1.8-0.4 19.1-0.2 38.5 0.3 33.3 0.4 35.3 2.3 37.9 1.1 1.4 3.3 3.6 4.8 4.8 2.2 1.6 4.3 2.1 8.7 2.1 4.3 0 6.6-0.5 8.6-2 1.4-1.1 3.6-3.3 4.8-4.8 1.9-2.5 2.2-4.6 2.6-18.3l0.5-15.4c45.2 45.2 50.7 50.2 53.7 51 2.1 0.6 5.5 0.7 7.5 0.3 2.3-0.4 5.3-2.1 7.6-4.2 2.3-2.2 4.2-5.1 4.8-7.4 0.6-2.4 0.5-5.2-0.2-8-0.9-3.6-4.4-7.6-26.2-29.4l-25.2-25.2c29.5-0.6 31.7-0.8 34.1-2.6 1.4-1.1 3.6-3.3 4.8-4.8 1.6-2.2 2.1-4.3 2.1-8.7 0-4.4-0.5-6.5-2.1-8.7-1.2-1.5-3.4-3.7-4.8-4.8-2.6-1.9-4.5-2-39.4-2.2-28.9-0.2-37.4 0-40.1 1.1-1.9 0.7-4.5 2.7-5.8 4.5z"/>
	<path id="Path 0 copy 4" fill-rule="evenodd" class="s1" d="m328.5 160.9l-24 24.1c-0.9-29.1-1.2-31.2-3.1-33.7-1.2-1.5-3.4-3.7-4.8-4.8-2-1.5-4.3-2-8.6-2-4.3 0-6.6 0.5-8.6 2-1.4 1.1-3.6 3.3-4.8 4.8-2.1 2.8-2.1 3.7-2.1 40.7 0 37 0 37.9 2.1 40.7 1.2 1.5 3.4 3.7 4.8 4.8 2.6 1.9 4.3 2 40.6 2 37 0 37.9 0 40.7-2.1 1.5-1.2 3.7-3.4 4.8-4.8 1.5-2 2-4.3 2-8.6 0-4.4-0.5-6.5-2.1-8.7-1.2-1.5-3.4-3.7-4.8-4.8-2.4-1.8-4.6-2-18.4-2.3l-15.7-0.3c45.5-45.6 50.5-51.2 51.5-54.4 0.9-3 0.9-5.1 0.1-8.3-0.6-2.3-2.5-5.6-4.1-7.2-1.7-1.7-4.7-3.4-6.8-4-2-0.5-4.4-1-5.2-1-0.8 0-3.3 0.9-5.5 1.9-2.5 1.2-12.8 10.7-28 26z"/>
</svg>